<svg xmlns="http://www.w3.org/2000/svg" viewBox="0 0 26 26"><defs><style>.cls-1{fill:#0f0f0f;}</style></defs><title>five</title><g id="Layer_2" data-name="Layer 2"><g id="Capa_1" data-name="Capa 1"><path id="five" class="cls-1" d="M24,0H2A2,2,0,0,0,0,2V24a2,2,0,0,0,2,2H24a2,2,0,0,0,2-2V2A2,2,0,0,0,24,0ZM5.64,3A2.73,2.73,0,1,1,2.91,5.72,2.73,2.73,0,0,1,5.64,3Zm.07,20a2.73,2.73,0,1,1,2.72-2.73A2.73,2.73,0,0,1,5.71,23ZM13,15.72A2.72,2.72,0,1,1,15.73,13,2.73,2.73,0,0,1,13,15.72ZM20.2,3a2.73,2.73,0,1,1-2.72,2.73A2.73,2.73,0,0,1,20.2,3Zm.16,20a2.73,2.73,0,1,1,2.73-2.73A2.73,2.73,0,0,1,20.36,23Z"/></g></g></svg>